<svg xmlns="http://www.w3.org/2000/svg" width="600" height="400" viewBox="0 0 600 400">
  <rect width="600" height="400" fill="#FFF8E1"/>
  <ellipse cx="180" cy="230" rx="60" ry="35" fill="#D4A054"/>
  <ellipse cx="180" cy="225" rx="55" ry="30" fill="#E8C98A"/>
  <line x1="150" y1="225" x2="210" y2="225" stroke="#C8956C" stroke-width="1.5"/>
  <line x1="155" y1="215" x2="205" y2="215" stroke="#C8956C" stroke-width="1.5"/>
  <line x1="160" y1="235" x2="200" y2="235" stroke="#C8956C" stroke-width="1.5"/>
  <ellipse cx="310" cy="220" rx="60" ry="35" fill="#D4A054"/>
  <ellipse cx="310" cy="215" rx="55" ry="30" fill="#E8C98A"/>
  <line x1="280" y1="215" x2="340" y2="215" stroke="#C8956C" stroke-width="1.5"/>
  <line x1="285" y1="205" x2="335" y2="205" stroke="#C8956C" stroke-width="1.5"/>
  <line x1="290" y1="225" x2="330" y2="225" stroke="#C8956C" stroke-width="1.5"/>
  <ellipse cx="430" cy="235" rx="60" ry="35" fill="#D4A054"/>
  <ellipse cx="430" cy="230" rx="55" ry="30" fill="#E8C98A"/>
  <line x1="400" y1="230" x2="460" y2="230" stroke="#C8956C" stroke-width="1.5"/>
  <line x1="405" y1="220" x2="455" y2="220" stroke="#C8956C" stroke-width="1.5"/>
  <text x="300" y="50" text-anchor="middle" font-family="Georgia" font-size="28" fill="#5D4037">Madeleines</text>
</svg>
